<svg xmlns="http://www.w3.org/2000/svg" width="37.258" height="33.500" viewBox="0 0 37.258 33.500" fill="none">
  <path d="M 10.022 25.46 C 8.708 25.46 7.463 25.151 6.3 24.743 C 5.515 24.471 5.062 24.517 4.443 25.045 C 3.386 25.891 2.269 25.377 2.269 24.177 C 2.33 17.851 2.33 13.216 2.269 6.241 C 2.262 4.852 1.892 4.452 0.578 3.697 C -0.297 3.161 -0.131 2.134 0.759 1.719 C 1.665 1.334 2.805 0.775 3.824 0.254 C 5.017 -0.319 5.915 0.081 5.908 1.417 C 5.893 4.24 5.893 4.467 5.908 8.589 C 5.908 9.562 6.572 9.864 7.425 9.306 C 8.565 8.513 9.765 8.158 11.2 8.158 C 14.521 8.158 18.273 10.936 18.273 16.439 C 18.273 22.124 14.529 25.46 10.022 25.46 Z M 5.908 19.776 C 5.938 21.641 7.599 23.369 9.992 23.369 C 12.332 23.369 14.264 21.935 14.264 17.511 C 14.264 13.646 12.634 10.778 9.743 10.778 C 7.614 10.778 5.953 12.174 5.915 14.552 C 5.885 16.266 5.878 18.04 5.908 19.776 Z" fill="currentColor" fill-rule="nonzero"></path>
  <path d="M 22.07 33.5 C 17.956 33.5 19.088 27.785 22.795 29.778 C 23.731 30.284 24.433 30.209 24.961 28.993 C 25.399 28.019 25.965 26.698 26.328 25.808 C 26.652 25.038 26.622 24.585 26.162 23.558 C 24.365 19.61 22.953 16.432 21.209 12.861 C 20.575 11.54 20.258 11.148 19.194 10.732 C 18.062 10.257 18.318 8.634 19.7 8.619 L 25.814 8.619 C 27.158 8.634 27.309 10.212 26.313 10.687 C 24.848 11.238 24.727 11.827 25.293 13.08 C 26.056 14.794 26.811 16.545 27.83 18.704 C 28.253 19.595 29.083 19.61 29.498 18.666 C 30.374 16.658 31.197 14.748 31.899 12.922 C 32.359 11.721 32.163 11.178 30.744 10.657 C 29.77 10.212 30.034 8.634 31.234 8.619 L 35.945 8.619 C 37.545 8.634 37.613 10.347 36.526 10.748 C 35.243 11.148 34.964 11.412 34.443 12.627 C 33.484 14.816 32.525 17.036 31.559 19.263 C 30.51 21.686 29.468 24.132 28.426 26.578 C 28.026 27.521 27.634 28.472 27.234 29.416 C 25.943 32.451 23.882 33.5 22.07 33.5 Z" fill="currentColor" fill-rule="nonzero"></path>
</svg>