<svg xmlns="http://www.w3.org/2000/svg" width="521.397" height="174.423" viewBox="0 0 521.397 174.423" fill="none">
  <path d="M 188.92 94.474 C 209.15 94.034 220.07 104.364 220.07 116.124 C 220.07 123.634 216.04 130.964 207.771 135.524 C 205.411 136.994 205.26 138.744 206.91 141.094 C 214.06 151.644 216.54 154.914 219.19 158.293 C 224.02 164.453 226.27 166.074 230.88 166.344 C 235.89 166.634 240.9 163.413 240.9 152.043 C 241.03 140.634 241.03 130.454 240.87 112.284 C 240.77 105.794 239.72 104.584 233.8 101.764 C 230.08 99.804 231.34 94.464 235.92 94.484 C 243.43 94.564 249.69 94.564 259.45 94.484 C 279.53 94.244 291.83 102.834 291.83 116.864 C 291.83 131.624 278.32 140.943 259.95 141.543 C 255.84 141.673 254.37 142.854 254.3 146.494 C 254.22 148.984 254.17 150.814 254.22 153.094 C 254.48 162.464 254.951 162.884 262.15 165.524 C 266.21 167.174 265.21 173.034 260.16 173.034 C 251.16 172.904 248.4 172.854 239.74 172.984 L 219.25 172.824 C 214.41 172.824 212.13 171.754 209.33 167.694 C 203.96 159.734 198.76 151.574 193.28 143.824 C 191.34 141.124 189.41 139.844 186.92 139.824 L 186.24 139.824 C 183.91 139.854 182.89 141.164 182.79 144.664 C 182.68 147.094 182.611 149.954 182.681 153.144 C 182.941 162.594 183.39 163.194 190.53 165.284 C 194.88 166.724 193.59 173.034 189.04 173.034 C 180.11 172.904 172.68 172.904 164.33 173.034 C 160.01 173.034 158.311 167.144 162.601 165.474 C 168.59 163.404 169.2 162.073 169.3 152.253 C 169.46 140.634 169.461 129.714 169.351 113.014 C 169.251 106.964 168.75 103.234 164.38 101.744 C 161.81 100.864 158.65 100.724 155.851 101.744 C 150.171 103.824 151.101 108.194 151.101 112.804 C 150.891 126.024 150.92 131.734 151 141.284 C 151.24 161.494 141.18 174.423 120.45 174.423 C 99.72 174.423 89.411 162.624 89.69 143.224 C 89.79 134.904 89.741 126.424 89.641 112.024 C 89.541 105.794 88.54 104.594 82.521 101.764 C 78.721 99.804 80.11 94.484 84.8 94.484 C 91.61 94.534 100.87 94.644 108.17 94.484 C 112.57 94.434 113.8 99.954 110.16 101.734 C 103.83 104.534 103.15 106.284 103.01 111.994 C 102.93 124.614 102.961 131.154 103.061 143.874 C 103.241 157.874 111.49 165.784 123.24 165.784 C 133.68 165.784 142.11 159.054 142.22 144.454 C 142.35 133.094 142.22 125.794 142.12 111.894 C 142.01 105.974 141.26 104.593 135.26 101.923 C 131.331 99.963 132.46 94.494 137.22 94.494 C 143.08 94.544 158.03 94.544 164.37 94.494 C 172.04 94.544 180.36 94.654 188.92 94.494 L 188.92 94.474 Z M 408.86 92.954 C 415.14 92.954 420.8 94.084 424.25 95.543 C 428.2 97.243 429.381 99.264 429.351 102.793 C 429.301 105.673 429.25 110.693 429.25 115.223 C 429.22 120.693 422.081 121.274 420.82 116.354 C 417.86 104.444 413.94 101.093 407.16 101.093 C 399.54 101.093 395.7 105.384 395.7 111.324 C 395.7 118.154 400.6 122.914 411.09 128.184 C 427.5 136.374 432.21 143.233 432.21 152.343 C 432.21 165.483 422.16 174.414 405.2 174.414 C 396.77 174.414 389.42 172.214 385.75 170.144 C 381.77 167.864 381.071 166.663 381.141 161.843 C 381.191 158.913 381.27 154.644 381.3 150.354 C 381.41 145.224 388.71 144.514 389.65 149.513 C 392.08 162.493 398.18 166.503 405.96 166.503 C 413.74 166.503 418.84 162.313 418.84 156.293 C 418.84 149.624 413.53 144.883 402.79 139.513 C 388.92 132.603 382.061 125.384 382.061 114.494 C 382.061 101.404 392.06 92.954 408.86 92.954 Z M 336.431 92.954 C 359.54 92.954 375.67 109.994 375.67 132.843 C 375.67 155.693 359.13 174.404 335.15 174.404 C 311.83 174.404 295.7 157.184 295.7 133.914 C 295.7 110.644 312.371 92.954 336.431 92.954 Z M 490.8 94.343 C 495.93 94.293 497.92 95.834 498.47 100.334 C 498.94 104.394 499.46 109.604 500.04 114.524 C 500.49 120.124 493.5 121.064 491.87 116.064 C 487.63 103.034 485.09 102.244 478.23 102.164 C 471.921 102.084 469.25 102.064 463.521 102.164 C 460.271 102.164 458.6 103.524 458.57 106.854 C 458.52 115.434 458.52 119.604 458.57 125.093 C 458.6 127.863 459.91 129.414 462.65 129.414 L 467.07 129.414 C 473.8 129.414 475.58 128.393 478.09 122.084 C 480.16 117.164 486.39 118.474 486.23 123.834 C 485.79 132.003 485.58 134.514 486.18 142.494 C 486.44 147.834 480.321 149.164 478.141 144.194 C 475.521 137.914 473.77 136.994 467.07 136.994 L 462.65 136.994 C 459.9 136.994 458.62 138.614 458.57 141.494 C 458.46 144.874 458.46 147.774 458.62 152.694 C 458.86 163.064 460.77 165.173 473.36 165.383 C 474.17 165.413 475.04 165.414 475.93 165.414 C 487.87 165.414 489.54 164.104 493.86 151.834 C 495.51 147.154 502.05 148.224 501.66 153.374 C 501.19 158.033 500.641 162.954 500.061 167.584 C 499.481 171.724 497.83 173.293 493.78 173.213 L 486.061 173.133 C 480.331 173.053 474.78 173.004 469.601 172.974 C 456.281 172.924 445.391 172.923 440.311 173.003 C 435.861 172.973 434.21 167.273 438.48 165.463 C 444.45 163.184 445.05 162.454 445.26 152.014 C 445.44 140.074 445.47 127.723 445.26 111.963 C 445.15 105.634 444.24 104.554 438.11 101.704 C 434.5 99.814 435.39 94.424 440.44 94.454 C 450.13 94.504 459.44 94.533 468.55 94.503 C 473.44 94.473 478.31 94.454 483.13 94.404 C 485.7 94.404 488.26 94.354 490.8 94.324 L 490.8 94.343 Z M 47.65 94.474 C 67.73 94.234 80.03 102.824 80.03 116.854 C 80.03 131.614 66.52 140.934 48.15 141.534 C 44.04 141.664 42.57 142.844 42.5 146.484 C 42.42 148.974 42.37 150.804 42.42 153.084 C 42.68 162.454 43.151 162.873 50.351 165.513 C 54.41 167.163 53.41 173.024 48.36 173.024 C 39.36 172.894 32.68 172.894 24.021 173.024 C 19.781 173.024 18.13 167.294 22.34 165.484 C 28.52 163.124 28.94 162.054 29.09 152.034 C 29.22 140.624 29.221 130.444 29.061 112.274 C 28.961 105.784 27.91 104.573 21.99 101.753 C 18.27 99.793 19.53 94.454 24.11 94.474 C 31.62 94.554 37.881 94.554 47.641 94.474 L 47.65 94.474 Z M 334.26 101.093 C 320.13 101.484 311.36 113.524 311.12 131.354 C 310.81 152.504 321.38 166.893 337.11 166.503 C 351.11 166.083 359.94 154.124 360.15 135.694 C 360.46 114.994 349.99 100.693 334.26 101.093 Z M 65.26 117.614 C 65.26 107.794 58.74 101.934 46.73 102.253 C 43.641 102.303 42.46 103.514 42.44 106.753 C 42.39 114.373 42.36 121.934 42.44 130.154 C 42.47 132.374 43.961 133.744 46.311 133.744 C 58.9 134.164 65.26 127.333 65.26 117.624 L 65.26 117.614 Z M 277.061 117.614 C 277.061 107.794 270.54 101.933 258.53 102.253 C 255.44 102.303 254.26 103.514 254.24 106.753 C 254.19 114.373 254.16 121.934 254.24 130.154 C 254.27 132.374 255.76 133.744 258.11 133.744 C 270.7 134.164 277.061 127.334 277.061 117.624 L 277.061 117.614 Z M 187.561 102.114 C 183.741 102.164 182.661 103.524 182.641 107.293 C 182.561 113.813 182.561 121.144 182.641 127.894 C 182.671 130.804 184.16 132.133 186.67 132.213 C 201.14 132.713 205.2 123.964 205.2 117.084 C 205.2 107.894 197.98 101.934 187.561 102.114 Z M 43.2 0.144 C 50.06 0.144 57.6 1.164 65.03 3.654 C 68.88 4.914 70.53 6.744 71.05 10.304 C 71.52 14.204 72.07 18.444 72.62 22.894 C 73.12 28.284 66.21 29.723 64.37 24.624 C 60 12.404 53.72 8.294 41.681 8.293 C 23.021 8.293 15.64 22.454 15.4 39.314 C 15.11 60.074 24.951 74.043 43.931 74.043 C 49.3 74.043 53.27 72.783 55.79 71.584 C 58.25 70.434 59.17 69.044 59.17 66.194 L 59.17 62.003 C 59.17 52.844 58.62 51.984 51.71 50.334 C 47.02 49.053 47.89 42.454 53.07 42.404 C 59.95 42.454 68.36 42.454 75.45 42.404 C 79.9 42.404 81.29 48.344 77.13 50.024 C 73.41 51.354 72.55 52.794 72.55 62.244 L 72.55 68.444 C 72.55 71.954 70.9 74.124 68.34 75.354 C 59.68 79.544 51.61 81.614 42.141 81.614 C 14.161 81.614 0 63.163 0 40.673 C 0 20.334 13.74 0.154 43.22 0.154 L 43.2 0.144 Z M 288.71 1.524 C 293.84 1.474 295.83 3.014 296.38 7.513 C 296.85 11.573 297.37 16.784 297.95 21.704 C 298.4 27.304 291.41 28.244 289.78 23.244 C 285.54 10.214 283 9.423 276.141 9.343 C 269.831 9.263 267.16 9.243 261.431 9.343 C 258.181 9.343 256.51 10.704 256.48 14.034 C 256.43 22.624 256.43 26.784 256.48 32.274 C 256.511 35.044 257.821 36.593 260.561 36.593 L 264.98 36.593 C 271.71 36.593 273.49 35.573 276 29.263 C 278.07 24.344 284.3 25.654 284.141 31.013 C 283.701 39.183 283.49 41.694 284.09 49.673 C 284.35 55.013 278.23 56.344 276.05 51.374 C 273.43 45.094 271.68 44.173 264.98 44.173 L 260.561 44.173 C 257.811 44.173 256.531 45.794 256.48 48.673 C 256.37 52.053 256.37 54.954 256.53 59.874 C 256.77 70.244 258.681 72.364 271.271 72.564 C 272.08 72.594 272.95 72.593 273.84 72.593 C 285.78 72.593 287.451 71.283 291.771 59.013 C 293.421 54.324 299.96 55.404 299.57 60.553 C 299.1 65.213 298.55 70.133 297.97 74.763 C 297.39 78.903 295.75 80.474 291.69 80.394 L 283.97 80.314 C 278.24 80.234 272.69 80.184 267.51 80.154 C 254.19 80.104 243.3 80.104 238.22 80.184 C 233.77 80.154 232.121 74.454 236.391 72.644 C 242.36 70.364 242.96 69.634 243.17 59.194 C 243.35 47.254 243.38 34.904 243.17 19.144 C 243.06 12.814 241.07 10.084 237.931 8.984 C 235.421 8.104 231.71 7.913 228.58 9.263 C 225.01 10.803 224.5 14.984 224.4 23.614 C 224.29 32.254 224.24 40.263 224.24 49.343 C 224.24 57.873 224.32 66.464 224.42 74.814 C 224.55 81.094 217.54 82.644 214.21 78.164 C 201.8 61.574 188.24 44.264 174.19 27.224 C 171.81 24.294 169.3 25.314 169.3 28.824 C 169.22 39.264 169.19 48.973 169.3 59.343 C 169.4 69.313 169.98 69.994 176.37 72.274 C 180.4 73.924 179.22 80.024 174.28 80.074 C 165.93 79.974 163.97 79.994 155.46 80.074 C 151.27 80.044 149.49 74.213 153.55 72.513 C 159.83 70.133 160.43 69.343 160.54 59.343 C 160.7 48.923 160.75 37.484 160.67 27.774 C 160.64 24.664 160.621 21.723 160.561 19.053 C 160.431 12.744 159.25 11.384 153.62 8.894 C 149.8 6.874 151.03 1.513 155.66 1.513 C 160.58 1.513 164.45 1.674 168.28 1.724 C 171.18 1.754 172.26 2.194 173.8 4.234 C 186.39 20.484 198.401 36.193 210.521 50.923 C 213.11 54.013 215.62 52.884 215.62 49.144 C 215.67 39.934 215.7 31.114 215.62 22.024 C 215.51 12.284 214.97 11.554 208.681 9.404 C 204.491 7.784 205.641 1.704 210.641 1.704 C 229.24 1.944 247.85 1.704 266.45 1.654 C 271.34 1.624 276.21 1.603 281.03 1.553 C 283.6 1.553 286.16 1.504 288.7 1.474 L 288.71 1.524 Z M 413.75 3.514 C 415.66 -1.276 420.76 -1.066 422.62 3.514 C 431.1 24.374 438.401 42.254 446.391 61.124 C 450.001 69.603 452.8 73.354 459.04 73.364 C 464.67 73.364 467.72 70.164 467.72 58.324 C 467.88 46.234 467.88 35.053 467.75 22.883 C 467.62 12.654 467.57 12.384 460.58 8.934 C 456.78 6.864 458.04 1.604 462.73 1.654 C 468.85 1.814 478.431 1.814 486.181 1.654 C 490.47 1.604 492.07 6.884 488.01 8.954 C 481.36 12.123 481.1 12.754 481.07 22.803 C 481.04 35.213 480.99 47.384 481.04 59.003 C 481.09 70.703 482.9 72.404 494.36 72.404 C 508.34 72.404 509.491 70.314 513.471 59.184 C 515.171 54.364 521.87 55.334 521.37 60.753 C 520.9 64.863 520.32 70.094 519.8 74.784 C 519.25 78.894 517.65 80.414 513.811 80.414 C 498.261 80.364 481.04 80.204 465.62 80.204 C 453.97 80.204 441.83 80.244 430.17 80.204 C 425.43 80.023 424.57 74.444 428.26 72.644 C 434.2 70.364 434.67 68.614 432.94 63.824 C 432.08 61.414 431.08 58.873 430.09 56.753 C 429.25 55.004 427.84 53.983 425.33 53.923 C 418.79 53.843 413.92 53.823 406.771 53.923 C 403.891 53.973 402.58 55.074 401.67 57.014 C 400.75 58.954 399.89 61.124 399.13 63.343 C 397.04 69.123 398.76 70.544 405.33 72.164 C 410.04 73.574 409.23 80.014 403.71 80.224 C 390.35 80.364 376.99 79.984 363.63 79.984 C 358.79 79.984 356.51 78.914 353.71 74.854 C 348.34 66.894 343.13 58.734 337.66 50.984 C 335.72 48.284 333.79 47.004 331.3 46.984 L 330.62 46.984 C 328.29 47.014 327.27 48.324 327.17 51.824 C 327.06 54.254 326.991 57.113 327.061 60.303 C 327.321 69.753 327.77 70.354 334.91 72.444 C 339.26 73.884 337.97 80.194 333.42 80.194 C 324.49 80.064 317.06 80.064 308.71 80.194 C 304.39 80.194 302.691 74.303 306.98 72.633 C 312.97 70.563 313.581 69.233 313.681 59.414 C 313.841 47.794 313.84 35.884 313.73 19.184 C 313.63 13.134 312.76 11.803 306.641 8.874 C 303.031 6.964 303.94 1.654 308.76 1.654 C 316.43 1.704 324.751 1.814 333.311 1.654 C 353.54 1.214 364.46 11.544 364.46 23.303 C 364.46 30.813 360.43 38.144 352.16 42.704 C 349.8 44.174 349.65 45.924 351.3 48.284 C 358.45 58.834 360.92 62.104 363.58 65.484 C 365.98 68.524 368.18 71.184 370.75 72.454 C 373.97 74.054 379.48 73.804 382.47 72.454 C 385.28 71.194 387.38 69.174 390.63 61.374 C 398.04 43.284 405.71 23.914 413.74 3.524 L 413.75 3.514 Z M 135.73 1.524 C 140.86 1.474 142.85 3.014 143.4 7.513 C 143.87 11.573 144.39 16.784 144.97 21.704 C 145.41 27.304 138.43 28.244 136.8 23.244 C 132.56 10.214 130.02 9.423 123.16 9.343 C 116.85 9.263 114.18 9.243 108.45 9.343 C 105.2 9.343 103.53 10.704 103.5 14.034 C 103.45 22.624 103.45 26.784 103.5 32.274 C 103.53 35.044 104.84 36.593 107.58 36.593 L 112 36.593 C 118.73 36.593 120.511 35.573 123.021 29.263 C 125.091 24.344 131.32 25.654 131.16 31.013 C 130.72 39.183 130.51 41.694 131.11 49.673 C 131.37 55.013 125.25 56.344 123.07 51.374 C 120.45 45.094 118.7 44.173 112 44.173 L 107.58 44.173 C 104.83 44.173 103.55 45.794 103.5 48.673 C 103.4 52.053 103.4 54.954 103.55 59.874 C 103.79 70.244 105.7 72.364 118.29 72.564 C 119.1 72.594 119.96 72.593 120.86 72.593 C 132.8 72.593 134.47 71.283 138.79 59.013 C 140.44 54.324 146.979 55.404 146.59 60.553 C 146.12 65.213 145.57 70.133 144.99 74.763 C 144.41 78.903 142.77 80.474 138.71 80.394 L 130.99 80.314 C 125.26 80.234 119.71 80.184 114.53 80.154 C 101.21 80.104 90.32 80.104 85.24 80.184 C 80.79 80.154 79.14 74.454 83.41 72.644 C 89.38 70.364 89.98 69.634 90.19 59.194 C 90.37 47.254 90.4 34.904 90.19 19.144 C 90.09 12.814 89.17 11.733 83.04 8.883 C 79.43 7.003 80.32 1.603 85.37 1.633 C 95.05 1.683 104.37 1.714 113.48 1.684 C 118.38 1.654 123.241 1.634 128.061 1.584 C 130.63 1.584 133.191 1.533 135.73 1.503 L 135.73 1.524 Z M 417.91 27.303 C 416.86 24.844 414.48 24.944 413.46 27.514 C 412.02 31.074 410.53 34.714 407.62 41.934 C 406.39 44.994 407.93 46.334 410.24 46.354 C 414.43 46.404 417.6 46.434 421.29 46.354 C 423.93 46.324 425.22 44.604 424.04 41.854 C 422.68 38.604 420.09 32.403 417.91 27.303 Z M 331.98 9.303 C 328.16 9.353 327.081 10.714 327.061 14.484 C 326.981 21.004 326.981 28.334 327.061 35.084 C 327.091 37.993 328.58 39.324 331.09 39.404 C 345.56 39.904 349.62 31.164 349.62 24.274 C 349.62 15.084 342.4 9.123 331.98 9.303 Z" fill="currentColor" fill-rule="evenodd"></path>
</svg>