<svg xmlns="http://www.w3.org/2000/svg" width="273.733" height="91.572" viewBox="0 0 273.733 91.572" fill="none">
  <path d="M 99.183 49.599 C 109.803 49.368 115.536 54.791 115.536 60.965 C 115.536 64.908 113.421 68.756 109.079 71.15 C 107.84 71.922 107.762 72.84 108.628 74.074 C 112.382 79.613 113.683 81.33 115.074 83.104 C 117.61 86.338 118.792 87.189 121.212 87.331 C 123.842 87.483 126.473 85.792 126.473 79.823 C 126.541 73.833 126.541 68.488 126.457 58.949 C 126.405 55.542 125.853 54.906 122.745 53.426 C 120.792 52.397 121.453 49.594 123.857 49.604 C 127.8 49.646 131.087 49.646 136.211 49.604 C 146.753 49.478 153.211 53.988 153.211 61.354 C 153.211 69.103 146.118 73.996 136.474 74.311 C 134.316 74.379 133.545 74.998 133.508 76.909 C 133.466 78.216 133.439 79.177 133.465 80.374 C 133.601 85.293 133.849 85.514 137.629 86.9 C 139.76 87.767 139.235 90.843 136.584 90.843 C 131.859 90.775 130.41 90.748 125.863 90.816 L 115.106 90.732 C 112.565 90.732 111.368 90.171 109.898 88.039 C 107.079 83.86 104.349 79.577 101.472 75.508 C 100.453 74.09 99.44 73.418 98.133 73.407 L 97.775 73.407 C 96.553 73.423 96.017 74.111 95.965 75.948 C 95.907 77.224 95.87 78.726 95.907 80.4 C 96.044 85.362 96.28 85.677 100.028 86.774 C 102.312 87.531 101.635 90.843 99.246 90.843 C 94.558 90.775 90.657 90.775 86.273 90.843 C 84.005 90.843 83.113 87.751 85.365 86.874 C 88.51 85.787 88.83 85.089 88.883 79.934 C 88.967 73.833 88.966 68.1 88.908 59.332 C 88.856 56.156 88.593 54.198 86.3 53.416 C 84.951 52.954 83.291 52.881 81.821 53.416 C 78.839 54.508 79.327 56.802 79.327 59.222 C 79.217 66.162 79.232 69.16 79.274 74.174 C 79.4 84.784 74.119 91.572 63.236 91.572 C 52.353 91.572 46.94 85.377 47.087 75.192 C 47.139 70.824 47.113 66.372 47.061 58.813 C 47.008 55.542 46.484 54.911 43.323 53.426 C 41.328 52.397 42.058 49.605 44.52 49.604 C 48.095 49.631 52.957 49.688 56.789 49.604 C 59.099 49.578 59.745 52.476 57.834 53.41 C 54.511 54.88 54.154 55.799 54.08 58.797 C 54.038 65.422 54.054 68.856 54.106 75.534 C 54.201 82.884 58.532 87.037 64.701 87.037 C 70.182 87.037 74.607 83.503 74.665 75.839 C 74.733 69.875 74.666 66.042 74.613 58.744 C 74.556 55.636 74.161 54.911 71.012 53.51 C 68.949 52.481 69.541 49.61 72.04 49.609 C 75.117 49.636 82.965 49.636 86.294 49.609 C 90.321 49.636 94.689 49.693 99.183 49.609 L 99.183 49.599 Z M 214.651 48.801 C 217.948 48.801 220.92 49.394 222.731 50.16 C 224.805 51.053 225.424 52.114 225.408 53.967 C 225.382 55.479 225.356 58.114 225.356 60.492 C 225.341 63.364 221.592 63.669 220.931 61.086 C 219.377 54.833 217.318 53.074 213.759 53.074 C 209.758 53.074 207.742 55.327 207.742 58.445 C 207.742 62.031 210.315 64.53 215.822 67.297 C 224.437 71.597 226.91 75.198 226.91 79.98 C 226.91 86.879 221.633 91.567 212.729 91.567 C 208.304 91.567 204.445 90.412 202.519 89.325 C 200.429 88.128 200.062 87.498 200.099 84.968 C 200.125 83.43 200.167 81.188 200.183 78.936 C 200.241 76.243 204.073 75.87 204.566 78.495 C 205.842 85.309 209.044 87.415 213.129 87.415 C 217.213 87.415 219.89 85.215 219.891 82.055 C 219.891 78.553 217.103 76.064 211.465 73.245 C 204.183 69.617 200.581 65.827 200.581 60.109 C 200.581 53.237 205.831 48.801 214.651 48.801 Z M 176.626 48.801 C 188.759 48.801 197.227 57.747 197.227 69.743 C 197.227 81.739 188.543 91.563 175.953 91.563 C 163.71 91.562 155.242 82.521 155.242 70.305 C 155.242 58.088 163.995 48.801 176.626 48.801 Z M 257.67 49.53 C 260.363 49.504 261.408 50.313 261.696 52.676 C 261.943 54.807 262.216 57.542 262.521 60.125 C 262.757 63.065 259.087 63.559 258.231 60.934 C 256.005 54.093 254.672 53.678 251.07 53.636 C 247.758 53.594 246.356 53.583 243.348 53.636 C 241.642 53.636 240.765 54.35 240.749 56.099 C 240.723 60.603 240.723 62.793 240.749 65.675 C 240.765 67.129 241.453 67.942 242.891 67.942 L 245.212 67.942 C 248.745 67.942 249.679 67.406 250.997 64.094 C 252.084 61.511 255.354 62.199 255.271 65.013 C 255.04 69.302 254.929 70.62 255.244 74.81 C 255.38 77.613 252.168 78.311 251.023 75.702 C 249.648 72.405 248.729 71.922 245.212 71.922 L 242.891 71.922 C 241.447 71.922 240.775 72.772 240.749 74.284 C 240.691 76.059 240.691 77.581 240.775 80.164 C 240.901 85.608 241.904 86.716 248.514 86.826 C 248.939 86.842 249.396 86.843 249.863 86.843 C 256.132 86.843 257.008 86.155 259.276 79.713 C 260.143 77.256 263.576 77.818 263.371 80.521 C 263.124 82.968 262.836 85.551 262.531 87.981 C 262.227 90.155 261.361 90.979 259.234 90.938 L 255.182 90.896 C 252.173 90.854 249.259 90.827 246.54 90.812 C 239.547 90.785 233.829 90.785 231.162 90.827 C 228.826 90.811 227.961 87.818 230.202 86.868 C 233.336 85.671 233.651 85.288 233.762 79.808 C 233.856 73.539 233.872 67.055 233.762 58.781 C 233.704 55.458 233.226 54.891 230.008 53.395 C 228.113 52.402 228.58 49.573 231.23 49.589 C 236.318 49.615 241.206 49.63 245.988 49.614 C 248.556 49.599 251.113 49.589 253.644 49.563 C 254.993 49.562 256.337 49.536 257.67 49.521 L 257.67 49.53 Z M 25.016 49.599 C 35.558 49.473 42.016 53.983 42.016 61.349 C 42.015 69.097 34.922 73.991 25.278 74.306 C 23.121 74.374 22.349 74.993 22.313 76.904 C 22.271 78.211 22.244 79.172 22.271 80.369 C 22.407 85.288 22.654 85.509 26.434 86.895 C 28.565 87.761 28.04 90.838 25.389 90.838 C 20.664 90.77 17.157 90.77 12.61 90.838 C 10.384 90.838 9.518 87.829 11.729 86.879 C 14.973 85.64 15.194 85.078 15.272 79.817 C 15.341 73.827 15.34 68.483 15.256 58.944 C 15.203 55.537 14.653 54.901 11.545 53.421 C 9.592 52.392 10.253 49.588 12.657 49.599 C 16.6 49.641 19.887 49.641 25.011 49.599 L 25.016 49.599 Z M 175.486 53.074 C 168.068 53.279 163.464 59.6 163.338 68.961 C 163.175 80.065 168.724 87.62 176.982 87.415 C 184.332 87.195 188.968 80.915 189.078 71.239 C 189.241 60.372 183.745 52.864 175.486 53.074 Z M 24.533 53.684 C 22.911 53.71 22.292 54.345 22.281 56.046 C 22.255 60.046 22.239 64.016 22.281 68.331 C 22.297 69.496 23.079 70.216 24.313 70.216 C 30.922 70.436 34.262 66.851 34.262 61.753 L 34.262 61.747 C 34.262 56.592 30.838 53.516 24.533 53.684 Z M 135.729 53.684 C 134.106 53.71 133.486 54.345 133.476 56.046 C 133.449 60.046 133.434 64.016 133.476 68.331 C 133.491 69.496 134.274 70.216 135.508 70.216 C 142.117 70.436 145.456 66.85 145.456 61.753 L 145.456 61.747 C 145.456 56.592 142.033 53.516 135.729 53.684 Z M 98.469 53.61 C 96.463 53.637 95.896 54.35 95.886 56.329 C 95.844 59.752 95.844 63.601 95.886 67.145 C 95.902 68.672 96.684 69.37 98.002 69.412 C 105.598 69.674 107.729 65.081 107.729 61.469 C 107.729 56.644 103.939 53.516 98.469 53.61 Z M 22.68 0.075 C 26.281 0.075 30.24 0.611 34.141 1.918 C 36.162 2.579 37.028 3.541 37.301 5.41 C 37.548 7.458 37.836 9.683 38.125 12.02 C 38.387 14.849 34.76 15.605 33.794 12.928 C 31.5 6.512 28.203 4.354 21.882 4.354 C 12.085 4.354 8.211 11.788 8.085 20.64 C 7.933 31.539 13.099 38.873 23.063 38.873 C 25.883 38.873 27.967 38.212 29.29 37.582 C 30.581 36.978 31.064 36.248 31.064 34.752 L 31.064 32.552 C 31.064 27.743 30.775 27.292 27.147 26.426 C 24.685 25.754 25.142 22.288 27.861 22.262 C 31.473 22.288 35.889 22.288 39.611 22.262 C 41.947 22.262 42.677 25.381 40.493 26.263 C 38.54 26.961 38.089 27.717 38.089 32.678 L 38.089 35.934 C 38.089 37.776 37.222 38.915 35.878 39.561 C 31.331 41.76 27.095 42.848 22.123 42.848 C 7.434 42.848 0 33.161 0 21.354 C 0 10.675 7.214 0.081 22.69 0.081 L 22.68 0.075 Z M 151.572 0.8 C 154.266 0.774 155.311 1.583 155.6 3.945 C 155.846 6.077 156.119 8.812 156.424 11.395 C 156.66 14.334 152.991 14.828 152.135 12.203 C 149.909 5.363 148.575 4.947 144.974 4.905 C 141.661 4.863 140.259 4.853 137.251 4.905 C 135.545 4.905 134.667 5.62 134.651 7.368 C 134.625 11.877 134.625 14.061 134.651 16.943 C 134.667 18.398 135.355 19.212 136.794 19.212 L 139.114 19.212 C 142.648 19.212 143.582 18.676 144.899 15.363 C 145.986 12.78 149.257 13.468 149.173 16.282 C 148.942 20.571 148.832 21.89 149.147 26.079 C 149.284 28.882 146.07 29.581 144.926 26.972 C 143.55 23.675 142.632 23.191 139.114 23.191 L 136.794 23.191 C 135.35 23.191 134.678 24.042 134.651 25.554 C 134.594 27.328 134.594 28.851 134.678 31.434 C 134.804 36.878 135.807 37.991 142.417 38.096 C 142.842 38.111 143.299 38.112 143.766 38.112 C 150.034 38.112 150.911 37.424 153.179 30.982 C 154.045 28.52 157.479 29.087 157.274 31.791 C 157.028 34.237 156.738 36.82 156.434 39.251 C 156.129 41.424 155.268 42.249 153.137 42.207 L 149.084 42.165 C 146.076 42.123 143.162 42.097 140.442 42.081 C 133.45 42.055 127.732 42.055 125.065 42.097 C 122.729 42.081 121.863 39.088 124.104 38.138 C 127.239 36.941 127.554 36.558 127.664 31.077 C 127.759 24.809 127.774 18.325 127.664 10.051 C 127.606 6.728 126.562 5.294 124.913 4.717 C 123.595 4.255 121.647 4.155 120.004 4.863 C 118.13 5.672 117.862 7.867 117.81 12.397 C 117.752 16.933 117.726 21.138 117.726 25.905 C 117.726 30.384 117.768 34.894 117.82 39.277 C 117.889 42.574 114.208 43.388 112.46 41.036 C 105.945 32.326 98.825 23.239 91.449 14.293 C 90.2 12.755 88.883 13.29 88.883 15.133 C 88.841 20.614 88.825 25.711 88.883 31.155 C 88.935 36.389 89.239 36.747 92.594 37.944 C 94.709 38.811 94.09 42.013 91.497 42.039 C 87.113 41.987 86.084 41.997 81.616 42.039 C 79.417 42.023 78.482 38.963 80.613 38.07 C 83.91 36.821 84.225 36.405 84.283 31.155 C 84.367 25.685 84.394 19.679 84.352 14.581 C 84.336 12.948 84.325 11.405 84.294 10.003 C 84.226 6.691 83.606 5.976 80.65 4.669 C 78.645 3.608 79.291 0.795 81.722 0.795 C 84.304 0.795 86.336 0.879 88.347 0.905 C 89.869 0.921 90.437 1.152 91.245 2.223 C 97.855 10.754 104.159 19.002 110.522 26.735 C 111.882 28.358 113.2 27.764 113.2 25.801 C 113.226 20.966 113.242 16.335 113.2 11.563 C 113.142 6.449 112.859 6.066 109.557 4.938 C 107.357 4.087 107.961 0.895 110.586 0.895 C 120.351 1.021 130.121 0.894 139.886 0.868 C 142.453 0.852 145.011 0.842 147.541 0.815 C 148.89 0.815 150.234 0.789 151.567 0.773 L 151.572 0.8 Z M 217.219 1.845 C 218.222 -0.67 220.898 -0.559 221.875 1.845 C 226.327 12.796 230.16 22.183 234.354 32.09 C 236.25 36.542 237.72 38.511 240.996 38.517 C 243.952 38.517 245.553 36.836 245.553 30.62 C 245.637 24.273 245.637 18.403 245.568 12.014 C 245.5 6.644 245.474 6.501 241.805 4.69 C 239.81 3.604 240.471 0.842 242.933 0.868 C 246.146 0.952 251.175 0.952 255.244 0.868 C 257.496 0.842 258.337 3.614 256.205 4.701 C 252.714 6.365 252.577 6.696 252.562 11.972 C 252.546 18.487 252.52 24.877 252.546 30.978 C 252.572 37.12 253.523 38.012 259.539 38.012 C 266.878 38.012 267.482 36.914 269.571 31.071 C 270.464 28.541 273.981 29.05 273.719 31.896 C 273.472 34.053 273.168 36.799 272.895 39.262 C 272.606 41.419 271.766 42.218 269.75 42.218 C 261.586 42.192 252.546 42.107 244.45 42.107 C 238.334 42.107 231.96 42.128 225.839 42.107 C 223.351 42.013 222.899 39.083 224.836 38.138 C 227.954 36.941 228.201 36.023 227.293 33.508 C 226.841 32.243 226.317 30.909 225.797 29.796 C 225.356 28.877 224.616 28.342 223.298 28.311 C 219.864 28.269 217.307 28.258 213.554 28.311 C 212.042 28.337 211.355 28.914 210.877 29.933 C 210.394 30.951 209.942 32.09 209.543 33.256 C 208.446 36.29 209.349 37.035 212.798 37.886 C 215.271 38.626 214.845 42.007 211.947 42.117 C 204.933 42.191 197.919 41.991 190.905 41.991 C 188.365 41.991 187.167 41.43 185.697 39.299 C 182.878 35.12 180.143 30.835 177.271 26.767 C 176.253 25.349 175.24 24.678 173.933 24.667 L 173.575 24.667 C 172.352 24.683 171.816 25.371 171.764 27.208 C 171.706 28.484 171.669 29.985 171.706 31.659 C 171.843 36.62 172.079 36.936 175.827 38.033 C 178.111 38.789 177.434 42.102 175.045 42.102 C 170.357 42.033 166.456 42.033 162.072 42.102 C 159.805 42.101 158.912 39.01 161.164 38.133 C 164.309 37.046 164.629 36.348 164.682 31.192 C 164.766 25.092 164.766 18.839 164.708 10.071 C 164.655 6.895 164.198 6.197 160.985 4.659 C 159.09 3.656 159.568 0.868 162.099 0.868 C 166.125 0.894 170.493 0.952 174.987 0.868 C 185.608 0.637 191.342 6.06 191.342 12.234 C 191.342 16.177 189.226 20.026 184.884 22.42 C 183.645 23.192 183.566 24.111 184.433 25.35 C 188.186 30.888 189.483 32.605 190.879 34.379 C 192.139 35.975 193.294 37.371 194.644 38.038 C 196.334 38.878 199.227 38.747 200.797 38.038 C 202.272 37.377 203.375 36.316 205.081 32.222 C 208.971 22.725 212.997 12.555 217.213 1.851 L 217.219 1.845 Z M 71.258 0.8 C 73.951 0.774 74.996 1.583 75.285 3.945 C 75.532 6.077 75.805 8.812 76.109 11.395 C 76.34 14.334 72.676 14.828 71.82 12.203 C 69.594 5.363 68.26 4.947 64.659 4.905 C 61.347 4.863 59.944 4.853 56.937 4.905 C 55.23 4.905 54.353 5.62 54.337 7.368 C 54.311 11.878 54.311 14.062 54.337 16.944 C 54.353 18.398 55.041 19.212 56.479 19.212 L 58.8 19.212 C 62.333 19.212 63.267 18.676 64.585 15.363 C 65.672 12.78 68.942 13.468 68.858 16.282 C 68.627 20.571 68.518 21.89 68.833 26.079 C 68.969 28.882 65.756 29.581 64.611 26.972 C 63.236 23.675 62.317 23.191 58.8 23.191 L 56.479 23.191 C 55.036 23.191 54.363 24.042 54.337 25.554 C 54.284 27.328 54.285 28.851 54.363 31.434 C 54.489 36.878 55.493 37.991 62.103 38.096 C 62.528 38.111 62.979 38.112 63.451 38.112 C 69.72 38.112 70.596 37.424 72.864 30.982 C 73.731 28.52 77.165 29.087 76.96 31.791 C 76.713 34.237 76.424 36.82 76.119 39.251 C 75.815 41.424 74.954 42.249 72.822 42.207 L 68.77 42.165 C 65.761 42.123 62.847 42.097 60.128 42.081 C 53.135 42.055 47.418 42.055 44.751 42.097 C 42.415 42.081 41.548 39.088 43.79 38.138 C 46.924 36.941 47.239 36.558 47.35 31.077 C 47.444 24.809 47.46 18.325 47.35 10.051 C 47.297 6.728 46.814 6.16 43.596 4.664 C 41.701 3.677 42.168 0.842 44.819 0.857 C 49.901 0.884 54.794 0.9 59.577 0.884 C 62.15 0.868 64.701 0.858 67.231 0.832 C 68.581 0.832 69.924 0.806 71.258 0.79 L 71.258 0.8 Z M 219.402 14.335 C 218.851 13.043 217.602 13.096 217.066 14.445 C 216.31 16.314 215.528 18.225 214 22.016 C 213.354 23.622 214.163 24.325 215.376 24.336 C 217.576 24.362 219.24 24.378 221.177 24.336 C 222.563 24.32 223.24 23.417 222.621 21.974 C 221.907 20.267 220.547 17.012 219.402 14.335 Z M 174.289 4.885 C 172.284 4.911 171.717 5.625 171.706 7.604 C 171.664 11.027 171.664 14.875 171.706 18.419 C 171.722 19.947 172.505 20.646 173.822 20.688 C 181.419 20.95 183.551 16.361 183.551 12.744 C 183.551 7.919 179.76 4.79 174.289 4.885 Z" fill="currentColor" fill-rule="evenodd"></path>
</svg>